inDegrees=no
num_controls=7
num_derivatives=13
num_iterations=105
num_multipliers=7
num_parameters=0
num_slacks=7
num_states=26
objective=0.477037
objective_accelerations=0.044438
objective_balance=0.003736
objective_effort=0.040804
objective_height=0.382389
objective_ligament=0.005670
solver_duration=1450.380788
status=Solve_Succeeded
success=true
DataType=double
version=3
OpenSimVersion=4.5
endheader
time	/jointset/ground_pelvis/pelvis_tilt/value	/jointset/ground_pelvis/pelvis_tx/value	/jointset/ground_pelvis/pelvis_ty/value	/jointset/hip_l/hip_flexion_l/value	/jointset/hip_l/hip_adduction_l/value	/jointset/hip_l/hip_rotation_l/value	/jointset/back/lumbar_extension/value	/jointset/patellofemoral_l/patellar_flexion_l/value	/jointset/knee_l/knee_flexion_l/value	/jointset/knee_l/knee_adduction_l/value	/jointset/knee_l/knee_rotation_l/value	/jointset/ankle_l/ankle_angle_l/value	/jointset/subtalar_l/subtalar_angle_l/value	/jointset/ground_pelvis/pelvis_tilt/speed	/jointset/ground_pelvis/pelvis_tx/speed	/jointset/ground_pelvis/pelvis_ty/speed	/jointset/hip_l/hip_flexion_l/speed	/jointset/hip_l/hip_adduction_l/speed	/jointset/hip_l/hip_rotation_l/speed	/jointset/back/lumbar_extension/speed	/jointset/patellofemoral_l/patellar_flexion_l/speed	/jointset/knee_l/knee_flexion_l/speed	/jointset/knee_l/knee_adduction_l/speed	/jointset/knee_l/knee_rotation_l/speed	/jointset/ankle_l/ankle_angle_l/speed	/jointset/subtalar_l/subtalar_angle_l/speed	/forceset/tau_hip_flexion_l	/forceset/tau_hip_adduction_l	/forceset/tau_hip_rotation_l	/forceset/tau_knee_flexion_l	/forceset/tau_ankle_angle_l	/forceset/tau_subtalar_angle_l	/forceset/tau_lumbar_extension	lambda_cid13_p0	lambda_cid13_p1	lambda_cid13_p2	lambda_cid13_p3	lambda_cid13_p4	lambda_cid13_p5	lambda_cid14_p0	/jointset/ground_pelvis/pelvis_tilt/accel	/jointset/ground_pelvis/pelvis_tx/accel	/jointset/ground_pelvis/pelvis_ty/accel	/jointset/hip_l/hip_flexion_l/accel	/jointset/hip_l/hip_adduction_l/accel	/jointset/hip_l/hip_rotation_l/accel	/jointset/back/lumbar_extension/accel	/jointset/patellofemoral_l/patellar_flexion_l/accel	/jointset/knee_l/knee_flexion_l/accel	/jointset/knee_l/knee_adduction_l/accel	/jointset/knee_l/knee_rotation_l/accel	/jointset/ankle_l/ankle_angle_l/accel	/jointset/subtalar_l/subtalar_angle_l/accel	gamma_cid13_p0	gamma_cid13_p1	gamma_cid13_p2	gamma_cid13_p3	gamma_cid13_p4	gamma_cid13_p5	gamma_cid14_p0
1.5	0.008106178391674674	-0.01385295063212733	0.8520291703171003	0.6766539927339709	-0.3224831633722559	-0.1327700696154098	-0.7983950522067621	0.77698030813226	0.7769803081322566	-0.1034365801532043	-0.1745169400910554	0.1496151078413571	0.02273086681135957	0.3216782808006365	0.2364810965805904	0.423976584737098	-1.990273071701855	0.08401649950224385	-0.6432588962854533	0.8406067841128383	-1.991785212784503	-1.991785212784461	-0.1440615741380978	-0.0003721456046086605	-0.4446872091644337	-0.05910703052256017	-0.1973398849222327	0.02711338991786209	-0.005260748052503388	-0.2280743985057949	0.07188537494519359	0.03628924666003281	0.2796602302087308	-19.24400137069764	-14.46359045977964	4.219056015701749	-8.221501532363737	-669.7304327827843	-71.16741269624868	-15.31103840705982	-0.01011275892252486	0.6674504800644894	-0.613879077317428	-0.7094619060962577	0.4746449282845072	-0.3641016539981037	2.001641339654858	-1.003086916875774	-1.003086916875696	-0.258842930711803	0.02347636286500681	-0.2711446890937367	0.456175821428856	3.177127976353677e-07	1.017729758800768e-06	-1.388725026430613e-06	-1.803957632325929e-08	4.108098373085959e-07	5.498730924509482e-07	2.909474038408331e-07
1.51	0.01132231223963071	-0.01145497702602168	0.8562374077907956	0.6567175744345735	-0.3216201085772326	-0.1392213300248369	-0.7898905150679528	0.757014666212757	0.7570146662127427	-0.1048911632592209	-0.1745213387726649	0.1451551434291967	0.02216170952722257	0.3215036134503504	0.2430884051401929	0.4175825226357976	-1.996746695472343	0.08859077577899366	-0.6468902745565328	0.8601718610434796	-2.001057412412437	-2.001057412412355	-0.146877322353195	-0.0004831097545752249	-0.4472175818239928	-0.05470655943918329	-0.189820753265308	0.02591523541697607	-0.005054782806146913	-0.2245622386271936	0.072827248242839	0.0356359020528416	0.2723429801836342	-18.69920019034539	-14.33137486830215	4.262103773848667	-8.240882288452285	-665.0903564115905	-71.24493133017154	-16.02508813724126	-0.02787256011797411	0.6536220919984325	-0.6653641597470038	-0.5767247640662707	0.448110278901149	-0.3469937796408357	1.914623478927015	-0.8464695615458225	-0.8464695615398932	-0.2960009831953516	-0.02478938504692921	-0.2307083067811867	0.4344243112220384	2.2356719519745e-07	1.521166294294121e-06	-7.236231743794288e-07	1.059778258684557e-07	3.499569805977832e-07	5.942758612175648e-07	2.536310011643747e-07
1.52	0.01453535364667546	-0.008991680124701895	0.8603790657668358	0.6367243374671612	-0.3207114527591375	-0.1457057717901707	-0.7811941906380057	0.7369648656818063	0.7369648656817993	-0.1063745158906249	-0.1745261284120199	0.1406725303399615	0.0216370452658052	0.3210597926186154	0.2495457556234171	0.4106606852060666	-2.001636805304476	0.09313670411698403	-0.649895167466736	0.8789642423404501	-2.008616935072114	-2.008616935071993	-0.1498154792197623	-0.0004503371493199879	-0.4492169445793198	-0.05020842597861017	-0.1823016216083911	0.02471708091608199	-0.004848817559642609	-0.2210500787486022	0.0737691215404804	0.03498255744563768	0.2650257301585339	-18.15349836621322	-14.2005878109606	4.306831381848967	-8.296036551289919	-660.4647982999793	-71.35765682962526	-16.72856015068367	-0.0639434552123226	0.6374588647888475	-0.7194341430035389	-0.3927591184252868	0.4689753405326064	-0.2388045818228211	1.847102212920672	-0.6605515232242759	-0.660551523224292	-0.2833246610058157	0.0522237139093823	-0.1649427082472968	0.4757082968681162	1.65079969691492e-07	1.825598932557525e-06	-3.231961274609919e-07	1.779401328950378e-07	3.202712778827774e-07	6.197289161840885e-07	2.301241916495411e-07
1.53	0.01774261937942771	-0.006464691034744031	0.8644489614320578	0.6166901252155733	-0.3197573696077	-0.152217779690354	-0.772314039637248	0.7168479261986604	0.7168479261986448	-0.1078872685627191	-0.1745301655956363	0.1361724695182321	0.02115795332976813	0.3203475219906768	0.2558134877379218	0.4032382124359591	-2.004932625937295	0.09767805431302354	-0.6524226618639535	0.8969161930425698	-2.01448764062649	-2.014487640626409	-0.1527328328833255	-0.0003404768105486807	-0.4507165115885006	-0.04559330769519698	-0.1748668769206888	0.02363738903793305	-0.004695564531116664	-0.2174124047795273	0.07417040410302105	0.03421588401896861	0.2577128408234122	-17.80903380882962	-13.98261872392971	4.334543222785345	-8.058983455557764	-656.1055693975483	-71.33721284051641	-17.42190457370821	-0.0817501282690795	0.615684892194606	-0.7656240470447196	-0.257046327660738	0.4462148824773021	-0.2469537888960114	1.746776783567259	-0.5078752440845161	-0.5078752440905183	-0.2952862881955701	-0.007176428139399203	-0.1305921456652237	0.4566154562871775	1.444797696757407e-07	1.918589930014111e-06	-2.039860609960956e-07	1.945939013086669e-07	3.237006762883161e-07	6.250479002380135e-07	2.212900748689338e-07
